<svg xmlns="http://www.w3.org/2000/svg" width="9" height="9" viewBox="0 0 9 9">
  <defs>
    <style>
      .cls-1 {
        fill-rule: evenodd;
      }
    </style>
  </defs>
  <path id="star.svg" class="cls-1" d="M700.713,251.148l1.145,2.841,2.93,0.264a0.246,0.246,0,0,1,.132.425L702.7,256.7l0.666,3a0.233,0.233,0,0,1-.344.262l-2.519-1.593-2.519,1.593a0.233,0.233,0,0,1-.344-0.262l0.666-3-2.223-2.02a0.244,0.244,0,0,1,.131-0.424l2.931-.264,1.145-2.841A0.227,0.227,0,0,1,700.713,251.148Z" transform="translate(-696 -251)"/>
</svg>
